<svg width="46" height="46" viewBox="0 0 46 46" fill="none" xmlns="http://www.w3.org/2000/svg">
<path d="M23 4.6001C12.8386 4.6001 4.59998 12.8387 4.59998 23.0001C4.59998 31.622 10.537 38.8364 18.541 40.8328C18.4552 40.5844 18.4 40.2961 18.4 39.9388V36.794C17.6532 36.794 16.402 36.794 16.0877 36.794C14.8288 36.794 13.7095 36.2527 13.1667 35.2468C12.5641 34.129 12.4598 32.4194 10.9664 31.3736C10.5232 31.0256 10.8606 30.6284 11.3712 30.6821C12.3142 30.9489 13.0962 31.596 13.8322 32.5558C14.5651 33.5172 14.9101 33.735 16.2794 33.735C16.9433 33.735 17.9369 33.6966 18.8722 33.5494C19.3752 32.2722 20.2446 31.0961 21.3072 30.541C15.18 29.9108 12.2559 26.8626 12.2559 22.7241C12.2559 20.9424 13.0149 19.2189 14.3044 17.7668C13.8812 16.3255 13.3492 13.3861 14.467 12.2668C17.2239 12.2668 18.8906 14.0546 19.2908 14.5376C20.6647 14.0669 22.1735 13.8001 23.759 13.8001C25.3475 13.8001 26.8624 14.0669 28.2394 14.5407C28.635 14.0608 30.3032 12.2668 33.0663 12.2668C34.1887 13.3876 33.6505 16.3393 33.2227 17.7776C34.5046 19.2266 35.259 20.9454 35.259 22.7241C35.259 26.8595 32.3395 29.9062 26.2215 30.5395C27.9051 31.4181 29.1333 33.8868 29.1333 35.7467V39.9388C29.1333 40.0983 29.098 40.2133 29.0796 40.3498C36.2495 37.8366 41.4 31.0286 41.4 23.0001C41.4 12.8387 33.1614 4.6001 23 4.6001Z" fill="#F8BB25"/>
</svg>
