<svg width="46" height="46" viewBox="0 0 46 46" fill="none" xmlns="http://www.w3.org/2000/svg">
<path d="M23 3.06665C12.009 3.06665 3.06665 12.009 3.06665 23C3.06665 33.9909 12.009 42.9333 23 42.9333C33.9909 42.9333 42.9333 33.9909 42.9333 23C42.9333 12.009 33.9909 3.06665 23 3.06665ZM17.8879 9.19998H28.1091C32.9008 9.19998 36.8 13.0977 36.8 17.8879V28.1091C36.8 32.9008 32.9022 36.8 28.1121 36.8H17.8909C13.0992 36.8 9.19998 32.9022 9.19998 28.1121V17.8909C9.19998 13.0992 13.0977 9.19998 17.8879 9.19998ZM17.8879 12.2667C14.789 12.2667 12.2667 14.7905 12.2667 17.8909V28.1121C12.2667 31.211 14.7905 33.7333 17.8909 33.7333H28.1121C31.211 33.7333 33.7333 31.2095 33.7333 28.1091V17.8879C33.7333 14.789 31.2095 12.2667 28.1091 12.2667H17.8879ZM30.1575 14.8212C30.7218 14.8212 31.1788 15.2782 31.1788 15.8424C31.1788 16.4067 30.7218 16.8666 30.1575 16.8666C29.5933 16.8666 29.1333 16.4067 29.1333 15.8424C29.1333 15.2782 29.5933 14.8212 30.1575 14.8212ZM23 15.3333C27.2274 15.3333 30.6666 18.7726 30.6666 23C30.6666 27.2274 27.2274 30.6666 23 30.6666C18.7726 30.6666 15.3333 27.2274 15.3333 23C15.3333 18.7726 18.7726 15.3333 23 15.3333ZM23 18.4C21.78 18.4 20.61 18.8846 19.7473 19.7473C18.8846 20.61 18.4 21.78 18.4 23C18.4 24.22 18.8846 25.39 19.7473 26.2527C20.61 27.1153 21.78 27.6 23 27.6C24.22 27.6 25.39 27.1153 26.2527 26.2527C27.1153 25.39 27.6 24.22 27.6 23C27.6 21.78 27.1153 20.61 26.2527 19.7473C25.39 18.8846 24.22 18.4 23 18.4Z" fill="#F8BB25"/>
</svg>
