<svg width="46" height="46" viewBox="0 0 46 46" fill="none" xmlns="http://www.w3.org/2000/svg">
<path d="M23 4.6001C12.8386 4.6001 4.59998 12.8387 4.59998 23.0001C4.59998 33.1615 12.8386 41.4001 23 41.4001C33.1614 41.4001 41.4 33.1615 41.4 23.0001C41.4 12.8387 33.1614 4.6001 23 4.6001ZM16.0938 12.8847C17.3849 12.8847 18.2451 13.7449 18.2451 14.8918C18.2451 16.0388 17.3849 16.899 15.9512 16.899C14.6602 16.9005 13.8 16.0388 13.8 14.8918C13.8 13.7449 14.6602 12.8847 16.0938 12.8847ZM18.4 30.6668H13.8V18.4001H18.4V30.6668ZM33.7333 30.6668H29.4032V23.963C29.4032 22.1092 28.2486 21.6814 27.8162 21.6814C27.3838 21.6814 25.9394 21.9666 25.9394 23.963C25.9394 24.2482 25.9394 30.6668 25.9394 30.6668H21.4666V18.4001H25.9409V20.1113C26.5174 19.1131 27.672 18.4001 29.8371 18.4001C32.0022 18.4001 33.7333 20.1113 33.7333 23.963V30.6668Z" fill="#F8BB25"/>
</svg>
