<svg width="82" height="60" viewBox="0 0 82 60" fill="none" xmlns="http://www.w3.org/2000/svg">
<path d="M5.2 14C4.8378 13.9962 4.47819 14.0452 4.14208 14.144C3.80597 14.2429 3.50005 14.3896 3.2421 14.5757C2.98416 14.7618 2.77934 14.9835 2.63953 15.228C2.49973 15.4725 2.42773 15.7349 2.42773 16C2.42773 16.265 2.49973 16.5275 2.63953 16.772C2.77934 17.0165 2.98416 17.2382 3.2421 17.4243C3.50005 17.6104 3.80597 17.7571 4.14208 17.856C4.47819 17.9548 4.8378 18.0037 5.2 18H70.8C71.1622 18.0037 71.5218 17.9548 71.8579 17.856C72.194 17.7571 72.4999 17.6104 72.7579 17.4243C73.0158 17.2382 73.2207 17.0165 73.3605 16.772C73.5003 16.5275 73.5723 16.265 73.5723 16C73.5723 15.7349 73.5003 15.4725 73.3605 15.228C73.2207 14.9835 73.0158 14.7618 72.7579 14.5757C72.4999 14.3896 72.194 14.2429 71.8579 14.144C71.5218 14.0452 71.1622 13.9962 70.8 14H5.2ZM5.2 28C4.8378 27.9963 4.47819 28.0452 4.14208 28.144C3.80597 28.2429 3.50005 28.3896 3.2421 28.5757C2.98416 28.7618 2.77934 28.9835 2.63953 29.228C2.49973 29.4725 2.42773 29.735 2.42773 30C2.42773 30.2651 2.49973 30.5275 2.63953 30.772C2.77934 31.0165 2.98416 31.2382 3.2421 31.4243C3.50005 31.6104 3.80597 31.7571 4.14208 31.856C4.47819 31.9548 4.8378 32.0037 5.2 32H70.8C71.1622 32.0037 71.5218 31.9548 71.8579 31.856C72.194 31.7571 72.4999 31.6104 72.7579 31.4243C73.0158 31.2382 73.2207 31.0165 73.3605 30.772C73.5003 30.5275 73.5723 30.2651 73.5723 30C73.5723 29.735 73.5003 29.4725 73.3605 29.228C73.2207 28.9835 73.0158 28.7618 72.7579 28.5757C72.4999 28.3896 72.194 28.2429 71.8579 28.144C71.5218 28.0452 71.1622 27.9963 70.8 28H5.2ZM5.2 42C4.8378 41.9963 4.47819 42.0452 4.14208 42.144C3.80597 42.2429 3.50005 42.3896 3.2421 42.5757C2.98416 42.7618 2.77934 42.9835 2.63953 43.228C2.49973 43.4725 2.42773 43.735 2.42773 44C2.42773 44.2651 2.49973 44.5275 2.63953 44.772C2.77934 45.0165 2.98416 45.2382 3.2421 45.4243C3.50005 45.6104 3.80597 45.7571 4.14208 45.856C4.47819 45.9548 4.8378 46.0037 5.2 46H70.8C71.1622 46.0037 71.5218 45.9548 71.8579 45.856C72.194 45.7571 72.4999 45.6104 72.7579 45.4243C73.0158 45.2382 73.2207 45.0165 73.3605 44.772C73.5003 44.5275 73.5723 44.2651 73.5723 44C73.5723 43.735 73.5003 43.4725 73.3605 43.228C73.2207 42.9835 73.0158 42.7618 72.7579 42.5757C72.4999 42.3896 72.194 42.2429 71.8579 42.144C71.5218 42.0452 71.1622 41.9963 70.8 42H5.2Z" fill="#F8BB25"/>
</svg>
